<svg xmlns="http://www.w3.org/2000/svg" width="24" height="24" viewBox="0 0 24 24" fill="none" stroke="#c10007" stroke-linecap="round" stroke-linejoin="round">
  <path d="M5 4h14a2 2 0 0 1 2 2v12a2 2 0 0 1-2 2H5a2 2 0 0 1-2-2V6a2 2 0 0 1 2-2z" stroke-width="1"/>
  <rect x="8" y="9" width="8" height="8" rx="1" stroke-width="1"/>
  <path d="M8 11H6m2 2H6m2 2H6 M16 11h2m-2 2h2m-2 2h2 M11 9V7m2 0v2 M11 17v2m2 0v-2" stroke-width="1"/>
  <circle cx="3.5" cy="7" r="0.5" stroke-width="1"/>
  <circle cx="3.5" cy="10" r="0.5" stroke-width="1"/>
  <circle cx="3.5" cy="13" r="0.5" stroke-width="1"/>
  <circle cx="20.5" cy="7" r="0.5" stroke-width="1"/>
  <circle cx="20.5" cy="10" r="0.5" stroke-width="1"/>
  <circle cx="20.5" cy="13" r="0.5" stroke-width="1"/>
</svg>
