<svg xmlns="http://www.w3.org/2000/svg" width="24" height="24" viewBox="0 0 24 24" fill="none" stroke="#c10007" stroke-linecap="round" stroke-linejoin="round">
  <path d="M16 15H4a2 2 0 0 1-2-2V5a2 2 0 0 1 2-2h14a2 2 0 0 1 2 2v5" stroke-width="1"/>
  <path d="M2 6h13" stroke-width="1"/>
  <circle cx="4" cy="4.5" r="0.5" stroke-width="0.5"/>
  <circle cx="6" cy="4.5" r="0.5" stroke-width="0.5"/>
  <rect x="4" y="8" width="4" height="4" rx="1" stroke-width="1"/>

  <line x1="10" y1="9" x2="15" y2="9" stroke-width="1"/>
  <line x1="10" y1="11" x2="14" y2="11" stroke-width="1"/>

  <rect x="16" y="10" width="6" height="11" rx="1.5" stroke-width="1"/>
  <line x1="18" y1="18" x2="20" y2="18" stroke-width="1"/> <line x1="18" y1="12" x2="20" y2="12" stroke-width="1"/>
</svg>
