<svg xmlns="http://www.w3.org/2000/svg" width="24" height="24" viewBox="0 0 24 24" fill="none" stroke="#c10007" stroke-linecap="round" stroke-linejoin="round">
  <path d="M21 16V8a2 2 0 0 0-1-1.73l-7-4a2 2 0 0 0-2 0l-7 4A2 2 0 0 0 3 8v8a2 2 0 0 0 1 1.73l7 4a2 2 0 0 0 2 0l7-4A2 2 0 0 0 21 16z" stroke-width="1"/>
  <polyline points="3.27 6.96 12 12.01 20.73 6.96" stroke-width="1"/>
  <line x1="12" y1="22.08" x2="12" y2="12" stroke-width="1"/>

  <polyline points="14.5 14 16.5 15 14.5 17" stroke-width="1"/>
  <line x1="17.5" y1="17" x2="19" y2="16" stroke-width="1"/>
  <line x1="7" y1="13" x2="9" y2="14" stroke-width="1" opacity="0.5"/>
  <line x1="6" y1="15" x2="8" y2="16" stroke-width="1" opacity="0.5"/>
</svg>
